<mxfile host="app.diagrams.net" modified="2021-09-15T05:59:18.619Z" agent="5.0 (Windows NT 10.0; Win64; x64) AppleWebKit/537.36 (KHTML, like Gecko) Chrome/93.0.4577.63 Safari/537.36" etag="TrUjsY6pvncKn3wWRTKg" version="15.2.7" type="github">
  <diagram name="Page-1" id="9f46799a-70d6-7492-0946-bef42562c5a5">
    <mxGraphModel dx="970" dy="579" grid="1" gridSize="10" guides="1" tooltips="1" connect="1" arrows="1" fold="1" page="1" pageScale="1" pageWidth="1100" pageHeight="850" background="none" math="0" shadow="0">
      <root>
        <mxCell id="0" />
        <mxCell id="1" parent="0" />
        <mxCell id="tiY1srPRjBi-ZZJOYSUz-3" value="" style="shape=datastore;whiteSpace=wrap;html=1;" vertex="1" parent="1">
          <mxGeometry x="80" y="430" width="60" height="60" as="geometry" />
        </mxCell>
        <mxCell id="tiY1srPRjBi-ZZJOYSUz-5" value="" style="edgeStyle=orthogonalEdgeStyle;rounded=0;orthogonalLoop=1;jettySize=auto;html=1;entryX=0;entryY=0.5;entryDx=0;entryDy=0;entryPerimeter=0;" edge="1" parent="1" source="tiY1srPRjBi-ZZJOYSUz-3" target="tiY1srPRjBi-ZZJOYSUz-1">
          <mxGeometry relative="1" as="geometry">
            <mxPoint x="110" y="430" as="sourcePoint" />
            <mxPoint x="110" y="290" as="targetPoint" />
            <Array as="points">
              <mxPoint x="110" y="303" />
            </Array>
          </mxGeometry>
        </mxCell>
        <mxCell id="tiY1srPRjBi-ZZJOYSUz-6" value="MySQL Database" style="text;html=1;align=center;verticalAlign=middle;resizable=0;points=[];autosize=1;strokeColor=none;fillColor=none;" vertex="1" parent="1">
          <mxGeometry x="55" y="500" width="110" height="20" as="geometry" />
        </mxCell>
        <mxCell id="tiY1srPRjBi-ZZJOYSUz-8" value="" style="swimlane;startSize=0;" vertex="1" parent="1">
          <mxGeometry x="120" y="190" width="440" height="220" as="geometry" />
        </mxCell>
        <mxCell id="tiY1srPRjBi-ZZJOYSUz-1" value="" style="sketch=0;aspect=fixed;pointerEvents=1;shadow=0;dashed=0;html=1;strokeColor=none;labelPosition=center;verticalLabelPosition=bottom;verticalAlign=top;align=center;fillColor=#00188D;shape=mxgraph.azure.computer" vertex="1" parent="tiY1srPRjBi-ZZJOYSUz-8">
          <mxGeometry x="60" y="90" width="50" height="45" as="geometry" />
        </mxCell>
        <mxCell id="tiY1srPRjBi-ZZJOYSUz-2" value="One Stop Migration App" style="text;html=1;align=center;verticalAlign=middle;resizable=0;points=[];autosize=1;strokeColor=none;fillColor=none;" vertex="1" parent="tiY1srPRjBi-ZZJOYSUz-8">
          <mxGeometry x="30" y="60" width="140" height="20" as="geometry" />
        </mxCell>
        <mxCell id="tiY1srPRjBi-ZZJOYSUz-23" value="Source Install Directory" style="text;html=1;align=center;verticalAlign=middle;resizable=0;points=[];autosize=1;strokeColor=none;fillColor=none;" vertex="1" parent="tiY1srPRjBi-ZZJOYSUz-8">
          <mxGeometry x="260" y="10" width="140" height="20" as="geometry" />
        </mxCell>
        <mxCell id="tiY1srPRjBi-ZZJOYSUz-26" value="Command Central" style="whiteSpace=wrap;html=1;aspect=fixed;" vertex="1" parent="tiY1srPRjBi-ZZJOYSUz-8">
          <mxGeometry x="300" y="40" width="60" height="60" as="geometry" />
        </mxCell>
        <mxCell id="tiY1srPRjBi-ZZJOYSUz-27" value="SPM API" style="whiteSpace=wrap;html=1;aspect=fixed;" vertex="1" parent="tiY1srPRjBi-ZZJOYSUz-8">
          <mxGeometry x="300" y="110" width="60" height="60" as="geometry" />
        </mxCell>
        <mxCell id="tiY1srPRjBi-ZZJOYSUz-28" value="" style="endArrow=classic;startArrow=classic;html=1;entryX=0;entryY=0.5;entryDx=0;entryDy=0;exitX=0.984;exitY=0.316;exitDx=0;exitDy=0;exitPerimeter=0;" edge="1" parent="tiY1srPRjBi-ZZJOYSUz-8" source="tiY1srPRjBi-ZZJOYSUz-1" target="tiY1srPRjBi-ZZJOYSUz-26">
          <mxGeometry width="50" height="50" relative="1" as="geometry">
            <mxPoint x="350" y="230" as="sourcePoint" />
            <mxPoint x="400" y="180" as="targetPoint" />
            <Array as="points">
              <mxPoint x="260" y="104" />
              <mxPoint x="260" y="70" />
            </Array>
          </mxGeometry>
        </mxCell>
        <mxCell id="tiY1srPRjBi-ZZJOYSUz-29" value="" style="endArrow=classic;startArrow=classic;html=1;entryX=0;entryY=0.5;entryDx=0;entryDy=0;exitX=1;exitY=0.5;exitDx=0;exitDy=0;exitPerimeter=0;" edge="1" parent="tiY1srPRjBi-ZZJOYSUz-8" source="tiY1srPRjBi-ZZJOYSUz-1" target="tiY1srPRjBi-ZZJOYSUz-27">
          <mxGeometry width="50" height="50" relative="1" as="geometry">
            <mxPoint x="350" y="230" as="sourcePoint" />
            <mxPoint x="400" y="180" as="targetPoint" />
            <Array as="points">
              <mxPoint x="260" y="113" />
              <mxPoint x="260" y="140" />
            </Array>
          </mxGeometry>
        </mxCell>
        <mxCell id="tiY1srPRjBi-ZZJOYSUz-31" value="Bootstrap Installer" style="shape=hexagon;perimeter=hexagonPerimeter2;whiteSpace=wrap;html=1;fixedSize=1;" vertex="1" parent="tiY1srPRjBi-ZZJOYSUz-8">
          <mxGeometry x="140" y="160" width="120" height="40" as="geometry" />
        </mxCell>
        <mxCell id="tiY1srPRjBi-ZZJOYSUz-32" value="" style="endArrow=classic;html=1;exitX=0.5;exitY=1;exitDx=0;exitDy=0;exitPerimeter=0;entryX=0;entryY=0.5;entryDx=0;entryDy=0;" edge="1" parent="tiY1srPRjBi-ZZJOYSUz-8" source="tiY1srPRjBi-ZZJOYSUz-1" target="tiY1srPRjBi-ZZJOYSUz-31">
          <mxGeometry width="50" height="50" relative="1" as="geometry">
            <mxPoint x="390" y="230" as="sourcePoint" />
            <mxPoint x="440" y="180" as="targetPoint" />
            <Array as="points">
              <mxPoint x="85" y="180" />
            </Array>
          </mxGeometry>
        </mxCell>
        <mxCell id="tiY1srPRjBi-ZZJOYSUz-9" value="Source Machine" style="text;html=1;align=center;verticalAlign=middle;resizable=0;points=[];autosize=1;strokeColor=none;fillColor=none;" vertex="1" parent="1">
          <mxGeometry x="270" y="425" width="100" height="20" as="geometry" />
        </mxCell>
        <mxCell id="tiY1srPRjBi-ZZJOYSUz-34" value="" style="swimlane;startSize=0;" vertex="1" parent="1">
          <mxGeometry x="610" y="190" width="390" height="220" as="geometry" />
        </mxCell>
        <mxCell id="tiY1srPRjBi-ZZJOYSUz-38" value="Install Directory" style="swimlane;fontStyle=0;childLayout=stackLayout;horizontal=1;startSize=26;horizontalStack=0;resizeParent=1;resizeParentMax=0;resizeLast=0;collapsible=1;marginBottom=0;" vertex="1" parent="tiY1srPRjBi-ZZJOYSUz-34">
          <mxGeometry x="120" y="30" width="140" height="104" as="geometry" />
        </mxCell>
        <mxCell id="tiY1srPRjBi-ZZJOYSUz-39" value="Integration Server" style="text;strokeColor=none;fillColor=none;align=left;verticalAlign=top;spacingLeft=4;spacingRight=4;overflow=hidden;rotatable=0;points=[[0,0.5],[1,0.5]];portConstraint=eastwest;" vertex="1" parent="tiY1srPRjBi-ZZJOYSUz-38">
          <mxGeometry y="26" width="140" height="26" as="geometry" />
        </mxCell>
        <mxCell id="tiY1srPRjBi-ZZJOYSUz-40" value="My Webmethods Server" style="text;strokeColor=none;fillColor=none;align=left;verticalAlign=top;spacingLeft=4;spacingRight=4;overflow=hidden;rotatable=0;points=[[0,0.5],[1,0.5]];portConstraint=eastwest;" vertex="1" parent="tiY1srPRjBi-ZZJOYSUz-38">
          <mxGeometry y="52" width="140" height="26" as="geometry" />
        </mxCell>
        <mxCell id="tiY1srPRjBi-ZZJOYSUz-41" value="Database Components" style="text;strokeColor=none;fillColor=none;align=left;verticalAlign=top;spacingLeft=4;spacingRight=4;overflow=hidden;rotatable=0;points=[[0,0.5],[1,0.5]];portConstraint=eastwest;" vertex="1" parent="tiY1srPRjBi-ZZJOYSUz-38">
          <mxGeometry y="78" width="140" height="26" as="geometry" />
        </mxCell>
        <mxCell id="tiY1srPRjBi-ZZJOYSUz-35" value="Target Machine" style="text;html=1;align=center;verticalAlign=middle;resizable=0;points=[];autosize=1;strokeColor=none;fillColor=none;" vertex="1" parent="1">
          <mxGeometry x="755" y="425" width="100" height="20" as="geometry" />
        </mxCell>
        <mxCell id="tiY1srPRjBi-ZZJOYSUz-42" value="" style="endArrow=classic;html=1;entryX=0;entryY=0.5;entryDx=0;entryDy=0;exitX=1;exitY=0.5;exitDx=0;exitDy=0;" edge="1" parent="1" source="tiY1srPRjBi-ZZJOYSUz-31" target="tiY1srPRjBi-ZZJOYSUz-40">
          <mxGeometry width="50" height="50" relative="1" as="geometry">
            <mxPoint x="510" y="420" as="sourcePoint" />
            <mxPoint x="560" y="370" as="targetPoint" />
            <Array as="points">
              <mxPoint x="680" y="370" />
              <mxPoint x="680" y="285" />
            </Array>
          </mxGeometry>
        </mxCell>
      </root>
    </mxGraphModel>
  </diagram>
</mxfile>
